<svg width="33" height="59" viewBox="0 0 33 59" fill="none" xmlns="http://www.w3.org/2000/svg">
<path d="M13.9501 57.5119C14.0495 56.4145 13.9332 55.3368 13.6012 54.2788" stroke="#959399" stroke-width="2"/>
<path d="M13.6012 54.279C14.3159 53.0934 15.0897 51.9895 15.9226 50.9671C15.9432 50.9421 15.9696 50.9224 15.9995 50.9096C16.0294 50.8969 16.062 50.8913 16.0948 50.8935C16.1276 50.8957 16.1596 50.9055 16.1884 50.9222C16.2171 50.9389 16.2417 50.962 16.2602 50.9896L18.6886 54.5604" stroke="#FEBBA0" stroke-width="2"/>
<path d="M18.6884 54.5605L18.5026 57.2899C18.501 57.3094 18.5044 57.3289 18.5127 57.3473C18.5209 57.3657 18.5337 57.3826 18.5504 57.3969C18.5671 57.4112 18.5872 57.4226 18.6095 57.4303C18.6318 57.4381 18.6558 57.442 18.6799 57.4419L19.5212 57.4447C19.5392 57.4448 19.557 57.4408 19.5736 57.433C19.5902 57.4252 19.6052 57.4138 19.6178 57.3993C19.6304 57.3849 19.6402 57.3678 19.6469 57.349C19.6535 57.3303 19.6567 57.3102 19.6563 57.2899L19.6028 55.4047" stroke="#99958F" stroke-width="2"/>
<path d="M19.6025 55.4046C22.6555 55.5087 24.4113 49.6334 24.9262 47.5259" stroke="#FEBBA0" stroke-width="2"/>
<path d="M24.9268 47.5259C25.7034 45.8864 26.0213 44.1437 25.8806 42.2979" stroke="#959399" stroke-width="2"/>
<path d="M25.8804 42.2977C26.0361 41.1215 26.0464 40.0982 25.9113 39.2278C25.7763 38.3593 25.2173 37.956 24.2343 38.0179" stroke="#FEBBA0" stroke-width="2"/>
<path d="M24.2342 38.0178C24.0729 38.0046 23.9257 37.9605 23.7925 37.8855C23.7554 37.8651 23.7229 37.8354 23.6971 37.7985C23.6714 37.7616 23.653 37.7183 23.6433 37.6717C23.4032 36.4936 22.9558 35.52 22.3012 34.7509C21.2732 33.5447 20.5425 32.5918 20.1092 31.8921" stroke="#D3F3E8" stroke-width="2"/>
<path d="M12.6976 31.8501C12.5494 32.3341 12.163 32.9794 11.5383 33.786C10.7111 34.8534 10.3312 36.1946 10.3987 37.8098C10.4025 37.9279 10.3481 37.9814 10.2355 37.9701" stroke="#D3F3E8" stroke-width="2"/>
<path d="M10.2356 37.9702L9.46179 38.0181" stroke="#E6D2C0" stroke-width="2"/>
<path d="M9.46098 38.0176C7.2859 38.0626 7.0214 40.8201 7.20993 42.4015" stroke="#FEBBA0" stroke-width="2"/>
<path d="M7.21043 42.4019C7.08475 43.8613 7.26108 45.2691 7.73943 46.6254" stroke="#959399" stroke-width="2"/>
<path d="M7.73944 46.6255C8.16433 48.5586 9.70067 54.0737 11.7941 54.7011" stroke="#FEBBA0" stroke-width="2"/>
<path d="M11.7941 54.7012C11.7491 55.6748 11.902 56.6136 12.2528 57.5178" stroke="#959399" stroke-width="2"/>
<path d="M20.1087 31.8926C19.1801 31.6169 19.6641 31.04 20.1678 30.7587C22.1919 29.6238 23.5866 28.1259 24.3519 26.265C26.3075 21.5209 27.2755 17.4578 26.0487 12.3198C24.7234 6.77372 22.3682 1.21926 15.6572 1.24177C14.2222 1.2474 13.0995 1.79891 12.1287 2.7753C9.07855 5.84423 7.2477 9.52844 6.63616 13.828C5.90457 18.9575 6.03682 29.2054 12.6127 30.9078C12.7086 30.933 12.7871 30.9854 12.8322 31.0541C13.0123 31.3374 12.9672 31.6028 12.6971 31.8504" stroke="#6A8886" stroke-width="2"/>
<path d="M24.2343 38.0176L21.4908 38.1104" stroke="#D3B08D" stroke-width="2"/>
<path d="M21.4908 38.1109C17.6612 37.973 13.6206 38.2009 10.2355 37.9702" stroke="#BBC7AD" stroke-width="2"/>
<path d="M12.6833 17.9139C13.1157 17.76 13.4639 17.4258 13.6514 16.9848C13.8389 16.5439 13.8502 16.0323 13.683 15.5627C13.6002 15.3302 13.4761 15.1149 13.3176 14.9293C13.1592 14.7436 12.9696 14.5912 12.7597 14.4807C12.5498 14.3701 12.3236 14.3037 12.0941 14.2852C11.8647 14.2666 11.6364 14.2963 11.4223 14.3725C10.9899 14.5265 10.6417 14.8607 10.4542 15.3016C10.2667 15.7425 10.2553 16.2541 10.4225 16.7237C10.5054 16.9562 10.6295 17.1715 10.7879 17.3571C10.9464 17.5428 11.136 17.6952 11.3459 17.8058C11.5558 17.9163 11.782 17.9827 12.0115 18.0013C12.2409 18.0198 12.4692 17.9901 12.6833 17.9139Z" stroke="#6A8886" stroke-width="2"/>
<path d="M22.5019 15.2517C22.396 15.0582 22.2487 14.8898 22.0685 14.7562C21.8882 14.6225 21.6786 14.5261 21.4515 14.4726C21.2244 14.4191 20.9843 14.4095 20.7449 14.4443C20.5056 14.4791 20.2716 14.5577 20.0564 14.6755C19.8412 14.7933 19.6489 14.9481 19.4906 15.131C19.3323 15.3139 19.2111 15.5214 19.1338 15.7415C19.0565 15.9617 19.0247 16.1902 19.0403 16.4141C19.0558 16.6379 19.1183 16.8527 19.2242 17.0462C19.3302 17.2397 19.4775 17.4081 19.6577 17.5418C19.8379 17.6755 20.0476 17.7718 20.2747 17.8253C20.5017 17.8788 20.7418 17.8885 20.9812 17.8537C21.2206 17.8189 21.4546 17.7403 21.6698 17.6225C21.885 17.5047 22.0772 17.3499 22.2355 17.167C22.3938 16.984 22.5151 16.7766 22.5923 16.5565C22.6696 16.3363 22.7014 16.1078 22.6859 15.8839C22.6704 15.6601 22.6079 15.4452 22.5019 15.2517Z" stroke="#6A8886" stroke-width="2"/>
<path d="M17.4644 24.5204C17.4964 24.2056 17.3722 23.888 17.1192 23.6374C16.8662 23.3868 16.5051 23.2237 16.1153 23.1842C15.9223 23.1645 15.728 23.1758 15.5437 23.2174C15.3593 23.2589 15.1884 23.3299 15.0407 23.4262C14.8931 23.5226 14.7715 23.6425 14.683 23.779C14.5945 23.9155 14.5409 24.066 14.525 24.2218C14.493 24.5366 14.6172 24.8543 14.8702 25.1048C15.1232 25.3554 15.4844 25.5185 15.8741 25.5581C16.0671 25.5777 16.2614 25.5664 16.4457 25.5248C16.6301 25.4833 16.801 25.4123 16.9487 25.316C17.0963 25.2196 17.2179 25.0997 17.3064 24.9632C17.3949 24.8267 17.4486 24.6762 17.4644 24.5204Z" stroke="#6A8886" stroke-width="2"/>
<path d="M21.4908 38.1104C17.6472 38.5663 13.2436 38.9686 9.46179 38.0176" stroke="#E68F65" stroke-width="2"/>
<path d="M25.8804 42.2983C23.0187 42.2195 20.067 42.2983 17.332 42.2533C13.9573 42.1989 10.5835 42.2486 7.21069 42.4024" stroke="#95503E" stroke-width="2"/>
<path d="M24.9262 47.5259C19.2085 47.1545 13.5134 46.451 7.73944 46.6255" stroke="#95503E" stroke-width="2"/>
<path d="M19.6025 55.4047C19.4731 54.9207 19.1683 54.6393 18.688 54.5605" stroke="#995234" stroke-width="2"/>
<path d="M13.6007 54.279C12.9141 54.0727 12.3119 54.2134 11.7942 54.7011" stroke="#95503E" stroke-width="2"/>
<path d="M26.0065 7.42369L27.8101 13.0569L28.0155 15.8679C28.0164 15.884 28.0209 15.8997 28.0288 15.9136C28.0367 15.9276 28.0477 15.9395 28.0609 15.9483C28.0741 15.9571 28.0892 15.9626 28.1047 15.9642C28.1203 15.9659 28.1361 15.9638 28.1506 15.958C29.4984 15.4431 32.6724 15.3812 31.9858 17.8151C31.4568 19.6975 28.4939 19.222 28.9216 17.3424C28.9304 17.3003 28.927 17.2572 28.9118 17.2197C28.8966 17.1822 28.8704 17.1522 28.8372 17.1342C28.387 16.895 28.0718 17.1567 28.038 17.6406C27.7173 22.6746 25.7532 30.1284 20.1087 31.8926C19.1802 31.6169 19.6641 31.04 20.1678 30.7586C22.1919 29.6237 23.5866 28.1259 24.3519 26.265C26.3076 21.5209 27.2755 17.4578 26.0487 12.3197C24.7234 6.7737 22.3682 1.21924 15.6573 1.24175C14.2222 1.24737 13.0995 1.79888 12.1287 2.77528C9.07857 5.84421 7.24772 9.52842 6.63618 13.8279C5.90459 18.9575 6.03684 29.2054 12.6127 30.9078C12.7087 30.933 12.7871 30.9853 12.8322 31.0541C13.0123 31.3374 12.9673 31.6028 12.6971 31.8504C5.91303 30.9415 5.16737 22.9053 5.00417 17.5506C5.00253 17.4972 4.98986 17.4466 4.96885 17.4093C4.94784 17.372 4.92014 17.351 4.89161 17.3508L3.67323 17.379C3.6539 17.3793 3.63561 17.3858 3.61983 17.3979C3.60405 17.4099 3.59125 17.4272 3.58246 17.4484C3.57368 17.4695 3.56916 17.4939 3.56929 17.5195C3.56942 17.5451 3.57418 17.5712 3.58319 17.5956C4.44141 19.9311 0.608993 20.2237 0.938209 17.7645C1.01887 17.1585 1.37341 16.6943 2.00183 16.3716C3.2174 15.7498 3.62259 15.9608 4.85785 16.2985C4.87484 16.3034 4.89271 16.3046 4.91025 16.3019C4.92779 16.2992 4.9446 16.2927 4.95953 16.2828C4.97446 16.2729 4.98718 16.2599 4.99682 16.2447C5.00646 16.2294 5.01281 16.2123 5.01542 16.1944C5.1336 15.2771 5.2546 14.3766 5.37841 13.4931C5.86238 10.0715 7.11078 7.01288 9.12359 4.31724C11.5125 1.11231 13.7017 -0.491564 17.8689 0.133103C22.0165 0.752142 24.4082 3.79387 26.0065 7.42369Z" fill="#A7E8D5"/>
<path d="M20.1098 31.8926C20.5431 32.5923 21.2738 33.5453 22.3018 34.7515C22.9564 35.5206 23.4038 36.4942 23.6439 37.6722C23.6536 37.7188 23.672 37.7621 23.6977 37.799C23.7235 37.836 23.756 37.8657 23.7931 37.8861C23.9263 37.9611 24.0735 38.0052 24.2348 38.0183L21.4914 38.1112C17.6618 37.9733 13.6211 38.2012 10.2361 37.9705C10.3487 37.9817 10.4031 37.9283 10.3993 37.8101C10.3318 36.1949 10.7117 34.8537 11.5389 33.7863C12.1636 32.9797 12.55 32.3344 12.6982 31.8504C12.9683 31.6028 13.0134 31.3374 12.8333 31.0541C12.7882 30.9854 12.7097 30.933 12.6138 30.9078C6.03792 29.2054 5.90567 18.9575 6.63726 13.8279C7.2488 9.52844 9.07965 5.84423 12.1298 2.7753C13.1006 1.79891 14.2233 1.2474 15.6583 1.24177C22.3693 1.21926 24.7245 6.77372 26.0498 12.3197C27.2766 17.4578 26.3086 21.5209 24.353 26.265C23.5877 28.1259 22.193 29.6238 20.1689 30.7587C19.6652 31.04 19.1812 31.6169 20.1098 31.8926ZM12.6844 17.9144C13.1167 17.7605 13.465 17.4263 13.6524 16.9853C13.8399 16.5444 13.8513 16.0328 13.6841 15.5632C13.6013 15.3307 13.4771 15.1155 13.3187 14.9298C13.1603 14.7441 12.9707 14.5917 12.7608 14.4812C12.5508 14.3706 12.3247 14.3042 12.0952 14.2857C11.8657 14.2671 11.6374 14.2968 11.4233 14.373C10.991 14.527 10.6427 14.8612 10.4553 15.3021C10.2678 15.743 10.2564 16.2546 10.4236 16.7242C10.5064 16.9568 10.6306 17.172 10.789 17.3577C10.9474 17.5433 11.137 17.6958 11.3469 17.8063C11.5569 17.9168 11.783 17.9832 12.0125 18.0018C12.242 18.0203 12.4703 17.9907 12.6844 17.9144ZM22.5027 15.2521C22.3968 15.0586 22.2495 14.8902 22.0693 14.7565C21.8891 14.6228 21.6794 14.5265 21.4523 14.473C21.2252 14.4195 20.9851 14.4099 20.7458 14.4447C20.5064 14.4795 20.2724 14.558 20.0572 14.6759C19.842 14.7937 19.6497 14.9485 19.4914 15.1314C19.3331 15.3143 19.2119 15.5217 19.1346 15.7419C19.0574 15.962 19.0256 16.1905 19.0411 16.4144C19.0566 16.6383 19.1191 16.8531 19.225 17.0466C19.331 17.2401 19.4783 17.4085 19.6585 17.5422C19.8387 17.6758 20.0484 17.7722 20.2755 17.8257C20.5026 17.8792 20.7427 17.8888 20.982 17.854C21.2214 17.8192 21.4554 17.7407 21.6706 17.6228C21.8858 17.505 22.0781 17.3502 22.2364 17.1673C22.3946 16.9844 22.5159 16.777 22.5932 16.5568C22.6704 16.3367 22.7022 16.1081 22.6867 15.8843C22.6712 15.6604 22.6087 15.4456 22.5027 15.2521ZM17.4657 24.5206C17.4977 24.2058 17.3735 23.8882 17.1205 23.6376C16.8675 23.387 16.5064 23.224 16.1166 23.1844C15.9236 23.1648 15.7293 23.1761 15.545 23.2176C15.3606 23.2591 15.1897 23.3301 15.042 23.4264C14.8944 23.5228 14.7728 23.6427 14.6843 23.7792C14.5958 23.9157 14.5422 24.0662 14.5263 24.222C14.4943 24.5368 14.6185 24.8545 14.8715 25.105C15.1245 25.3556 15.4857 25.5187 15.8754 25.5583C16.0684 25.5779 16.2627 25.5666 16.447 25.525C16.6314 25.4835 16.8023 25.4125 16.95 25.3162C17.0976 25.2198 17.2192 25.1 17.3077 24.9634C17.3962 24.8269 17.4499 24.6765 17.4657 24.5206Z" fill="#A7E8D5"/>
<path d="M10.4227 16.7242C10.771 17.7021 11.7831 18.235 12.6835 17.9144C13.5838 17.5938 14.0314 16.5411 13.6832 15.5632C13.335 14.5853 12.3228 14.0524 11.4224 14.373C10.5221 14.6936 10.0745 15.7463 10.4227 16.7242Z" fill="#2C2737"/>
<path d="M21.6698 17.6225C22.5749 17.1269 22.9475 16.0655 22.502 15.2518C22.0564 14.438 20.9615 14.18 20.0564 14.6755C19.1513 15.171 18.7788 16.2324 19.2243 17.0462C19.6698 17.86 20.7647 18.118 21.6698 17.6225Z" fill="#2C2737"/>
<path d="M15.875 25.5583C16.6867 25.6408 17.3987 25.1762 17.4653 24.5207C17.5319 23.8651 16.9279 23.2669 16.1162 23.1844C15.3045 23.102 14.5925 23.5666 14.5259 24.2221C14.4593 24.8776 15.0634 25.4759 15.875 25.5583Z" fill="#2C2737"/>
<path d="M10.2356 37.9702C13.6206 38.2009 17.6612 37.973 21.4908 38.1109C17.6472 38.5667 13.2436 38.9691 9.46179 38.0181L10.2356 37.9702Z" fill="#CEA585"/>
<path d="M9.46208 38.0179C13.2438 38.969 17.6475 38.5666 21.4911 38.1107L24.2346 38.0179C25.2176 37.956 25.7766 38.3593 25.9116 39.2278C26.0467 40.0982 26.0364 41.1215 25.8807 42.2977C23.019 42.2189 20.0673 42.2977 17.3323 42.2527C13.9576 42.1983 10.5839 42.248 7.21103 42.4018C7.0225 40.8204 7.287 38.0629 9.46208 38.0179Z" fill="#FE7845"/>
<path d="M25.8801 42.2978C26.0208 44.1436 25.7028 45.8863 24.9262 47.5258C19.2085 47.1544 13.5134 46.451 7.73943 46.6254C7.26108 45.2692 7.08475 43.8613 7.21043 42.4019C10.5833 42.2481 13.957 42.1984 17.3317 42.2528C20.0667 42.2978 23.0184 42.219 25.8801 42.2978Z" fill="#2C2737"/>
<path d="M24.9262 47.5259C24.4113 49.6334 22.6555 55.5087 19.6025 55.4046C19.473 54.9206 19.1682 54.6392 18.688 54.5604L16.2597 50.9897C16.2411 50.9621 16.2165 50.939 16.1878 50.9223C16.1591 50.9056 16.127 50.8958 16.0942 50.8936C16.0614 50.8914 16.0288 50.8969 15.9989 50.9097C15.969 50.9225 15.9427 50.9422 15.922 50.9672C15.0891 51.9895 14.3153 53.0935 13.6006 54.2791C12.914 54.0727 12.3119 54.2134 11.7941 54.7011C9.70067 54.0736 8.16433 48.5586 7.73944 46.6255C13.5134 46.451 19.2085 47.1545 24.9262 47.5259Z" fill="#FE7845"/>
<path d="M13.6006 54.279C13.9326 55.337 14.0489 56.4147 13.9495 57.5121L12.2528 57.5177C11.902 56.6136 11.7491 55.6747 11.7941 54.7011C12.3119 54.2134 12.914 54.0727 13.6006 54.279Z" fill="#2C2737"/>
<path d="M18.6884 54.5605C19.1686 54.6393 19.4734 54.9207 19.6028 55.4047L19.6563 57.2899C19.6567 57.3102 19.6535 57.3303 19.6469 57.349C19.6402 57.3678 19.6304 57.3849 19.6178 57.3993C19.6052 57.4138 19.5902 57.4252 19.5736 57.433C19.557 57.4408 19.5392 57.4448 19.5212 57.4447L18.6799 57.4419C18.6558 57.442 18.6318 57.4381 18.6095 57.4303C18.5872 57.4226 18.5671 57.4112 18.5504 57.3969C18.5337 57.3826 18.5209 57.3657 18.5127 57.3473C18.5044 57.3289 18.501 57.3094 18.5026 57.2899L18.6884 54.5605Z" fill="#332B23"/>
</svg>
