<?xml version="1.0" encoding="UTF-8"?>
<!DOCTYPE svg PUBLIC "-//W3C//DTD SVG 1.1//EN" "http://www.w3.org/Graphics/SVG/1.1/DTD/svg11.dtd">
<!-- Creator: CorelDRAW -->
<svg xmlns="http://www.w3.org/2000/svg" xml:space="preserve" width="3.08073in" height="3.83664in" version="1.1" style="shape-rendering:geometricPrecision; text-rendering:geometricPrecision; image-rendering:optimizeQuality; fill-rule:evenodd; clip-rule:evenodd"
viewBox="0 0 3080.74 3836.65"
 xmlns:xlink="http://www.w3.org/1999/xlink"
 xmlns:xodm="http://www.corel.com/coreldraw/odm/2003">
 <defs>
  <style type="text/css">
   <![CDATA[
    .fil1 {fill:#0D4D28}
    .fil0 {fill:#FFCC00}
    .fil2 {fill:white}
   ]]>
  </style>
 </defs>
 <g id="Layer_x0020_1">
  <metadata id="CorelCorpID_0Corel-Layer"/>
  <g id="_105553193747008">
   <path class="fil0" d="M655.05 2751.74l-497.71 -424.5c-54.47,-46.47 -83.17,-108.21 -83.17,-180.24 0,-26.32 3.82,-51.3 11.37,-74.68 13.06,40.5 37.25,76.13 71.8,105.6l497.71 424.5 731.59 623.98c44.64,38.06 99.18,57.08 153.73,57.08 54.54,0 109.11,-19.02 153.73,-57.08l1229.3 -1048.48c34.56,-29.48 58.74,-65.11 71.8,-105.6 7.55,23.38 11.37,48.36 11.37,74.68 0,72.03 -28.7,133.77 -83.18,180.24l-1229.3 1048.48c-44.62,38.06 -99.19,57.1 -153.73,57.1 -54.55,0 -109.09,-19.04 -153.73,-57.1l-731.59 -623.97z"/>
   <path class="fil0" d="M655.05 2502.87l-497.71 -424.5c-54.47,-46.47 -83.17,-108.22 -83.17,-180.24 0,-26.32 3.84,-51.3 11.39,-74.68 13.08,40.5 37.24,76.11 71.79,105.58l497.71 424.5 731.59 623.97c44.64,38.06 99.18,57.09 153.73,57.09 54.54,0 109.11,-19.02 153.73,-57.09l1229.3 -1048.48c34.56,-29.48 58.7,-65.09 71.79,-105.58 7.54,23.38 11.39,48.36 11.39,74.68 0,72.02 -28.7,133.77 -83.18,180.24l-1229.3 1048.48c-44.62,38.06 -99.19,57.09 -153.73,57.09 -54.55,0 -109.09,-19.02 -153.73,-57.09l-731.59 -623.97z"/>
   <path class="fil0" d="M655.05 2253.97l-497.71 -424.5c-54.46,-46.44 -83.17,-108.24 -83.17,-180.24 0,-28.45 4.49,-55.32 13.29,-80.3 13.45,38.15 36.95,71.82 69.88,99.93l497.71 424.5 731.59 623.98c44.64,38.06 99.18,57.08 153.73,57.08 54.54,0 109.11,-19.02 153.73,-57.08l1229.3 -1048.48c32.93,-28.1 56.43,-61.77 69.88,-99.93 8.8,24.98 13.3,51.85 13.3,80.3 0,72.02 -28.7,133.79 -83.18,180.24l-1229.3 1048.48c-88.68,75.65 -218.76,75.63 -307.46,0l-731.59 -623.98z"/>
   <path class="fil1" d="M2882.15 2470.12l-504.27 430.09 -676 576.56c-93.78,79.98 -229.24,79.98 -323.02,0l-676 -576.56 -615.48 -524.94c-14.28,-12.18 -26.86,-25.35 -37.71,-39.42 -32.75,42.5 -49.67,93.26 -49.67,149.95 0,75.45 29.97,140.4 87.38,189.37l615.48 524.94 676 576.56c93.78,79.98 229.24,79.98 323.02,0l676 -576.56 615.48 -524.94c57.41,-48.96 87.38,-113.91 87.38,-189.37l0 -1134.93c0,-75.45 -29.96,-140.4 -87.38,-189.37l-615.48 -524.94 -676 -576.56c-93.78,-79.98 -229.24,-79.98 -323.02,0l-676 576.56 -615.48 524.94c-57.41,48.96 -87.38,113.91 -87.38,189.37 0,75.45 29.97,140.4 87.38,189.37l615.48 524.94 676 576.56c93.78,79.98 229.24,79.98 323.02,0l676 -576.56 504.27 -430.08 0 566.49 0 268.55z"/>
   <path class="fil2" d="M2301.19 1706.08l260.43 -222.12c40.35,-34.41 61.41,-80.06 61.41,-133.09 0,-53.03 -21.06,-98.69 -61.41,-133.09l-79.41 -67.73 -329.1 280.68 -87.39 74.54 -172.16 146.84 -188.53 160.79 -96.55 82.35c-39.55,33.72 -96.68,33.72 -136.22,0l-285.08 -243.14 -172.17 -146.85 -87.39 -74.53c-24.21,-20.65 -36.85,-48.04 -36.85,-79.86 0,-31.82 12.64,-59.21 36.85,-79.86l82.43 -70.3 177.13 -151.08 285.08 -243.14c0.26,-0.22 0.52,-0.43 0.78,-0.65l302.8 -258.26 -121.95 -104.01c-65.91,-56.21 -161.12,-56.21 -227.04,0l-475.13 405.24 -432.6 368.97c-40.35,34.41 -61.42,80.06 -61.42,133.09 0,53.03 21.07,98.69 61.42,133.09l260.43 222.12 172.17 146.84 475.13 405.24c65.91,56.21 161.12,56.21 227.04,0l475.14 -405.24 172.16 -146.84z"/>
  </g>
 </g>
</svg>
