<?xml version="1.0" encoding="UTF-8"?>
<!DOCTYPE svg PUBLIC "-//W3C//DTD SVG 1.1//EN" "http://www.w3.org/Graphics/SVG/1.1/DTD/svg11.dtd">
<!-- Creator: CorelDRAW -->
<svg xmlns="http://www.w3.org/2000/svg" xml:space="preserve" width="1.53324in" height="1.90944in" version="1.1" style="shape-rendering:geometricPrecision; text-rendering:geometricPrecision; image-rendering:optimizeQuality; fill-rule:evenodd; clip-rule:evenodd"
viewBox="0 0 510.06 635.21"
 xmlns:xlink="http://www.w3.org/1999/xlink"
 xmlns:xodm="http://www.corel.com/coreldraw/odm/2003">
 <defs>
  <style type="text/css">
   <![CDATA[
    .fil2 {fill:none}
    .fil4 {fill:#0D4D28}
    .fil0 {fill:#FFCC00}
    .fil5 {fill:white}
    .fil3 {fill:#FF6600;fill-opacity:0.290196}
    .fil1 {fill:#FF6600;fill-opacity:0.341176}
   ]]>
  </style>
    <clipPath id="id0">
     <path d="M108.45 455.59l-82.4 -70.28c-9.02,-7.69 -13.77,-17.92 -13.77,-29.84 0,-11.89 4.72,-22.13 13.77,-29.84l203.53 -173.59c7.39,-6.3 16.42,-9.45 25.45,-9.45 9.03,0 18.06,3.15 25.45,9.45l203.53 173.59c9.05,7.72 13.77,17.95 13.77,29.84 0,11.92 -4.75,22.15 -13.77,29.84l-203.53 173.59c-7.39,6.3 -16.42,9.45 -25.45,9.45 -9.03,0 -18.06,-3.15 -25.45,-9.45l-121.12 -103.31z"/>
    </clipPath>
    <clipPath id="id1">
     <path d="M108.45 414.38l-82.4 -70.28c-9.02,-7.69 -13.77,-17.92 -13.77,-29.84 0,-11.89 4.72,-22.13 13.77,-29.84l203.53 -173.59c7.39,-6.3 16.42,-9.45 25.45,-9.45 9.03,0 18.06,3.15 25.45,9.45l203.53 173.59c9.05,7.72 13.77,17.95 13.77,29.84 0,11.92 -4.75,22.15 -13.77,29.84l-203.53 173.59c-7.39,6.3 -16.42,9.45 -25.45,9.45 -9.03,0 -18.06,-3.15 -25.45,-9.45l-121.12 -103.31z"/>
    </clipPath>
     <clipPath id="id2">
      <path d="M108.45 373.18c-8.16,-6.96 -16.32,-13.92 -24.49,-20.88 -5.77,-4.92 -11.55,-9.85 -17.32,-14.77 -8.88,-7.57 -17.77,-15.15 -26.65,-22.73 -4.65,-3.96 -9.3,-7.93 -13.95,-11.89 -3.43,-2.92 -6.24,-6.21 -8.4,-9.81 -3.55,-5.9 -5.37,-12.65 -5.37,-20.03 0,-11.89 4.72,-22.13 13.77,-29.84 27.47,-23.43 54.94,-46.85 82.4,-70.28 4.86,-4.15 9.73,-8.3 14.59,-12.45 6.48,-5.53 12.96,-11.05 19.44,-16.58 12.88,-10.99 25.76,-21.98 38.65,-32.96 16.15,-13.77 32.3,-27.55 48.45,-41.32 7.39,-6.3 16.42,-9.45 25.45,-9.45 9.03,0 18.06,3.15 25.45,9.45 17.19,14.66 34.39,29.33 51.58,43.99 18.32,15.62 36.64,31.25 54.95,46.87 4.86,4.15 9.73,8.3 14.59,12.45 27.47,23.43 54.93,46.85 82.4,70.28 9.05,7.72 13.77,17.95 13.77,29.84 0,7.39 -1.82,14.13 -5.37,20.03 -2.16,3.6 -4.97,6.89 -8.4,9.81 -4.65,3.96 -9.3,7.93 -13.95,11.89 -8.88,7.58 -17.77,15.15 -26.65,22.73 -5.77,4.92 -11.55,9.85 -17.32,14.77 -8.16,6.96 -16.32,13.92 -24.49,20.88 -4.86,4.15 -9.73,8.3 -14.59,12.45 -18.32,15.62 -36.64,31.25 -54.95,46.87 -17.19,14.66 -34.39,29.33 -51.58,43.99 -7.39,6.3 -16.42,9.45 -25.45,9.45 -9.03,0 -18.06,-3.15 -25.45,-9.45 -16.15,-13.77 -32.3,-27.55 -48.45,-41.32 -12.88,-10.99 -25.76,-21.98 -38.65,-32.96 -6.48,-5.53 -12.96,-11.05 -19.44,-16.58 -4.86,-4.15 -9.73,-8.3 -14.59,-12.45z"/>
     </clipPath>
 </defs>
 <g id="Layer_x0020_1">
  <metadata id="CorelCorpID_0Corel-Layer"/>
  <g id="_105553124063136">
   <path class="fil0" d="M108.45 455.59l-82.4 -70.28c-9.02,-7.69 -13.77,-17.92 -13.77,-29.84 0,-11.89 4.72,-22.13 13.77,-29.84l203.53 -173.59c7.39,-6.3 16.42,-9.45 25.45,-9.45 9.03,0 18.06,3.15 25.45,9.45l203.53 173.59c9.05,7.72 13.77,17.95 13.77,29.84 0,11.92 -4.75,22.15 -13.77,29.84l-203.53 173.59c-7.39,6.3 -16.42,9.45 -25.45,9.45 -9.03,0 -18.06,-3.15 -25.45,-9.45l-121.12 -103.31z"/>
   <g style="clip-path:url(#id0)">
    <g>
     <path id="_1" class="fil1" d="M108.45 430.87l-82.4 -70.28c-9.02,-7.69 -13.77,-17.92 -13.77,-29.84 0,-11.89 4.72,-22.13 13.77,-29.84l203.53 -173.59c7.39,-6.3 16.42,-9.45 25.45,-9.45 9.03,0 18.06,3.15 25.45,9.45l203.53 173.59c9.05,7.72 13.77,17.95 13.77,29.84 0,11.92 -4.75,22.15 -13.77,29.84l-203.53 173.59c-7.39,6.3 -16.42,9.45 -25.45,9.45 -9.03,0 -18.06,-3.15 -25.45,-9.45l-121.12 -103.31z"/>
    </g>
   </g>
   <path class="fil2" d="M108.45 455.59l-82.4 -70.28c-9.02,-7.69 -13.77,-17.92 -13.77,-29.84 0,-11.89 4.72,-22.13 13.77,-29.84l203.53 -173.59c7.39,-6.3 16.42,-9.45 25.45,-9.45 9.03,0 18.06,3.15 25.45,9.45l203.53 173.59c9.05,7.72 13.77,17.95 13.77,29.84 0,11.92 -4.75,22.15 -13.77,29.84l-203.53 173.59c-7.39,6.3 -16.42,9.45 -25.45,9.45 -9.03,0 -18.06,-3.15 -25.45,-9.45l-121.12 -103.31z"/>
   <path class="fil0" d="M108.45 414.38l-82.4 -70.28c-9.02,-7.69 -13.77,-17.92 -13.77,-29.84 0,-11.89 4.72,-22.13 13.77,-29.84l203.53 -173.59c7.39,-6.3 16.42,-9.45 25.45,-9.45 9.03,0 18.06,3.15 25.45,9.45l203.53 173.59c9.05,7.72 13.77,17.95 13.77,29.84 0,11.92 -4.75,22.15 -13.77,29.84l-203.53 173.59c-7.39,6.3 -16.42,9.45 -25.45,9.45 -9.03,0 -18.06,-3.15 -25.45,-9.45l-121.12 -103.31z"/>
   <g style="clip-path:url(#id1)">
    <g>
     <path id="_1_0" class="fil3" d="M108.45 389.66l-82.4 -70.28c-9.02,-7.69 -13.77,-17.92 -13.77,-29.84 0,-11.89 4.72,-22.13 13.77,-29.84l203.53 -173.59c7.39,-6.3 16.42,-9.45 25.45,-9.45 9.03,0 18.06,3.15 25.45,9.45l203.53 173.59c9.05,7.72 13.77,17.95 13.77,29.84 0,11.92 -4.75,22.15 -13.77,29.84l-203.53 173.59c-7.39,6.3 -16.42,9.45 -25.45,9.45 -9.03,0 -18.06,-3.15 -25.45,-9.45l-121.12 -103.31z"/>
    </g>
   </g>
   <path class="fil2" d="M108.45 414.38l-82.4 -70.28c-9.02,-7.69 -13.77,-17.92 -13.77,-29.84 0,-11.89 4.72,-22.13 13.77,-29.84l203.53 -173.59c7.39,-6.3 16.42,-9.45 25.45,-9.45 9.03,0 18.06,3.15 25.45,9.45l203.53 173.59c9.05,7.72 13.77,17.95 13.77,29.84 0,11.92 -4.75,22.15 -13.77,29.84l-203.53 173.59c-7.39,6.3 -16.42,9.45 -25.45,9.45 -9.03,0 -18.06,-3.15 -25.45,-9.45l-121.12 -103.31z"/>
   <g>
    <g style="clip-path:url(#id2)">
     <image x="6.78" y="54.67" width="496.5" height="436.76" xlink:href="CAP LOGO_Images/CAP LOGO_ImgID1.png"/>
    </g>
   </g>
   <path class="fil4" d="M477.18 408.96l-83.49 71.21 -111.92 95.46c-15.53,13.24 -37.95,13.24 -53.48,0l-111.92 -95.46 -101.9 -86.91c-2.36,-2.02 -4.45,-4.2 -6.24,-6.53 -5.42,7.04 -8.22,15.44 -8.22,24.82 0,12.49 4.96,23.25 14.47,31.35l101.9 86.91 111.92 95.46c15.53,13.24 37.95,13.24 53.48,0l111.92 -95.46 101.9 -86.91c9.5,-8.11 14.47,-18.86 14.47,-31.35l0 -187.9c0,-12.49 -4.96,-23.24 -14.47,-31.35l-101.9 -86.91 -111.92 -95.46c-15.53,-13.24 -37.95,-13.24 -53.48,0l-111.92 95.46 -101.9 86.91c-9.5,8.11 -14.47,18.86 -14.47,31.35 0,12.49 4.96,23.25 14.47,31.35l101.9 86.91 111.92 95.46c15.53,13.24 37.95,13.24 53.48,0l111.92 -95.46 83.49 -71.21 0 93.79 0 44.46z"/>
   <path class="fil5" d="M380.99 282.46l43.12 -36.78c6.68,-5.7 10.17,-13.26 10.17,-22.04 0,-8.78 -3.49,-16.34 -10.17,-22.03l-13.15 -11.21 -54.49 46.47 -14.47 12.34 -28.5 24.31 -31.21 26.62 -15.99 13.63c-6.55,5.58 -16.01,5.58 -22.55,0l-47.2 -40.26 -28.5 -24.31 -14.47 -12.34c-4.01,-3.42 -6.1,-7.95 -6.1,-13.22 0,-5.27 2.09,-9.8 6.1,-13.22l13.65 -11.64 29.33 -25.01 47.2 -40.26c0.04,-0.04 0.09,-0.07 0.13,-0.11l50.13 -42.76 -20.19 -17.22c-10.91,-9.31 -26.68,-9.31 -37.59,0l-78.67 67.09 -71.62 61.09c-6.68,5.7 -10.17,13.26 -10.17,22.03 0,8.78 3.49,16.34 10.17,22.04l43.12 36.78 28.5 24.31 78.67 67.09c10.91,9.31 26.67,9.31 37.59,0l78.67 -67.09 28.5 -24.31z"/>
  </g>
 </g>
</svg>
